<?xml version="1.0" encoding="iso-8859-1"?>
<!-- Uploaded to: SVG Repo, www.svgrepo.com, Generator: SVG Repo Mixer Tools -->
<svg height="800px" width="800px" version="1.1" id="Layer_1" xmlns="http://www.w3.org/2000/svg" xmlns:xlink="http://www.w3.org/1999/xlink" 
	 viewBox="0 0 512.001 512.001" xml:space="preserve">
<circle style="fill:#F2F2F2;" cx="256.001" cy="256.001" r="256.001"/>
<circle style="fill:#E6E6E6;" cx="256.001" cy="256.001" r="165.322"/>
<path style="fill:#F4C67D;" d="M309.359,373.022c-92.98,0.001-168.474-75.494-168.472-168.474c0-5.751,0.289-11.434,0.851-17.037
	c2.081-20.717-23.915-31.46-36.935-15.21c-23.103,28.836-36.92,65.43-36.92,105.253c0,93.302,75.168,168.471,168.47,168.471
	c39.823,0,76.418-13.817,105.254-36.92c16.249-13.018,5.506-39.016-15.21-36.935C320.795,372.734,315.111,373.022,309.359,373.022z"
	/>
<g>
	<path style="fill:#E0B16E;" d="M257.637,433.746c-93.302,0-168.47-75.17-168.47-168.471c0-37.789,12.449-72.667,33.461-100.771
		c-6.328-0.557-12.976,1.746-17.825,7.798c-23.103,28.836-36.92,65.43-36.92,105.253c0,93.302,75.168,168.471,168.47,168.471
		c35.014,0,67.531-10.686,94.474-28.969C308.695,427.749,283.867,433.746,257.637,433.746z"/>
	<path style="fill:#E0B16E;" d="M377.187,130.041h-12.279v-11.483c0-20.822,16.78-37.763,37.407-37.763h6.139v12.279h-6.139
		c-14.091,0-25.129,11.195-25.129,25.485V130.041z"/>
</g>
<path style="fill:#F97E62;" d="M412.456,168.874L412.456,168.874c0-23.704-18.742-43.893-42.432-44.735
	c-24.871-0.884-45.619,19.015-45.619,43.688v0.258c0,16.068-6.516,31.266-18.162,42.336c-17.083,16.242-27.184,39.072-27.184,64.372
	c0,49.315,39.939,73.48,89.253,73.48s89.505-24.166,89.505-73.48c0-25.149-10.938-47.86-27.457-64.084
	C419.084,199.629,412.456,184.684,412.456,168.874z"/>
<path style="fill:#E86B56;" d="M343.352,210.42c-6.901,16.245-10.977,39.071-10.977,64.378c0,49.25,16.085,73.415,35.94,73.476
	c-49.324,0-89.255-24.165-89.255-73.476c0-25.307,10.093-48.133,27.185-64.378c11.64-11.075,18.16-26.264,18.16-42.337v-0.258
	c0-24.14,19.855-43.713,44.019-43.713c-9.749,0.012-17.755,19.585-17.755,43.713v0.258
	C350.67,184.156,348.042,199.345,343.352,210.42z"/>
<path style="fill:#BADB82;" d="M372.299,107.306L372.299,107.306c-35.854,0-64.92-29.065-64.92-64.92l0,0l0,0
	C343.233,42.385,372.299,71.452,372.299,107.306L372.299,107.306z"/>
<g>
	<path style="fill:#666666;" d="M141.739,187.507c-0.565,5.611-0.847,11.284-0.847,17.043l-47.728-15.791
		c3.561-5.722,7.453-11.223,11.64-16.454C117.82,156.05,143.814,166.794,141.739,187.507z"/>
	<path style="fill:#666666;" d="M341.613,409.102c-9.393,7.527-19.609,14.072-30.501,19.462
		c-12.033-22.397-1.756-55.537-1.756-55.537c5.759,0,11.444-0.295,17.043-0.86C347.114,370.093,357.858,396.088,341.613,409.102z"/>
</g>
<path style="fill:#68B9DD;" d="M267.29,209.32c0,11.785-7.998,21.716-18.857,24.655c-2.122,0.566-4.368,0.88-6.678,0.88
	c-14.095,0-25.534-11.439-25.534-25.534c0-14.111,11.439-25.534,25.534-25.534c2.31,0,4.557,0.314,6.678,0.88
	C259.291,187.604,267.29,197.519,267.29,209.32z"/>
<path style="fill:#76C7F4;" d="M267.29,209.32c0,11.785-7.998,21.716-18.857,24.655c-10.858-2.938-18.857-12.869-18.857-24.655
	c0-11.801,7.998-21.716,18.857-24.655C259.291,187.604,267.29,197.519,267.29,209.32z"/>
<path style="fill:#68B9DD;" d="M220.921,163.811c0,11.785-7.998,21.716-18.857,24.655c-2.122,0.566-4.368,0.88-6.678,0.88
	c-14.095,0-25.534-11.439-25.534-25.534c0-14.111,11.439-25.534,25.534-25.534c2.31,0,4.557,0.314,6.678,0.88
	C212.924,142.095,220.921,152.01,220.921,163.811z"/>
<path style="fill:#76C7F4;" d="M220.921,163.811c0,11.785-7.998,21.716-18.857,24.655c-10.858-2.938-18.857-12.869-18.857-24.655
	c0-11.801,7.998-21.716,18.857-24.655C212.924,142.095,220.921,152.01,220.921,163.811z"/>
<path style="fill:#68B9DD;" d="M281.534,150.932c0,11.785-7.998,21.716-18.857,24.655c-2.122,0.566-4.368,0.88-6.678,0.88
	c-14.095,0-25.534-11.439-25.534-25.534c0-14.111,11.439-25.534,25.534-25.534c2.31,0,4.557,0.314,6.678,0.88
	C273.536,129.216,281.534,139.131,281.534,150.932z"/>
<path style="fill:#76C7F4;" d="M281.534,150.932c0,11.785-7.998,21.716-18.857,24.655c-10.858-2.938-18.857-12.869-18.857-24.655
	c0-11.801,7.998-21.716,18.857-24.655C273.536,129.216,281.534,139.131,281.534,150.932z"/>
<path style="fill:#68B9DD;" d="M257.492,277.155c0,11.785-7.998,21.716-18.857,24.655c-2.122,0.566-4.369,0.88-6.678,0.88
	c-14.095,0-25.534-11.439-25.534-25.534c0-14.111,11.439-25.534,25.534-25.534c2.31,0,4.557,0.314,6.678,0.88
	C249.494,255.438,257.492,265.353,257.492,277.155z"/>
<path style="fill:#76C7F4;" d="M257.492,277.155c0,11.785-7.998,21.716-18.857,24.655c-10.858-2.938-18.857-12.869-18.857-24.655
	c0-11.801,7.998-21.716,18.857-24.655C249.494,255.438,257.492,265.353,257.492,277.155z"/>
<path style="fill:#E0B16E;" d="M108.762,242.051c0,0,0.212,0.945,0.611,2.72c0.378,1.771,1.073,4.344,1.887,7.607
	c0.867,3.256,1.97,7.186,3.346,11.642c0.659,2.234,1.459,4.585,2.245,7.068c0.889,2.457,1.68,5.072,2.711,7.736
	c0.49,1.337,0.991,2.703,1.5,4.094c0.544,1.376,1.099,2.777,1.664,4.204c1.089,2.862,2.383,5.751,3.641,8.74
	c2.676,5.91,5.55,12.1,8.973,18.238c1.631,3.114,3.509,6.144,5.324,9.256c0.895,1.564,1.956,3.034,2.932,4.568
	c1.018,1.504,1.912,3.105,3.021,4.564c2.134,2.974,4.236,6.006,6.577,8.863c1.157,1.439,2.249,2.937,3.459,4.336l3.675,4.158
	c0.615,0.69,1.202,1.408,1.828,2.087l1.94,1.977c1.292,1.32,2.581,2.637,3.869,3.954c1.329,1.272,2.727,2.462,4.062,3.713
	l2.021,1.853l1.008,0.926l1.065,0.853c5.631,4.591,11.353,8.929,17.293,12.538c1.482,0.912,2.951,1.816,4.406,2.712l1.094,0.665
	l1.131,0.584c0.749,0.397,1.494,0.792,2.235,1.184c2.969,1.567,5.845,3.188,8.816,4.411c1.466,0.661,2.914,1.313,4.338,1.955
	c0.715,0.323,1.423,0.642,2.125,0.959c0.711,0.297,1.437,0.539,2.144,0.814c2.851,1.074,5.606,2.111,8.251,3.108
	c2.687,0.889,5.307,1.62,7.781,2.41c1.241,0.39,2.451,0.77,3.627,1.139c1.185,0.335,2.358,0.572,3.481,0.867
	c2.254,0.565,4.376,1.061,6.335,1.584c0.982,0.253,1.924,0.496,2.825,0.728c0.911,0.172,1.78,0.335,2.604,0.49
	c3.305,0.598,5.909,1.182,7.693,1.532c1.784,0.384,2.736,0.589,2.736,0.589s-0.968,0.041-2.782,0.115
	c-1.815,0.04-4.49,0.171-7.904,0.192c-0.855,0.011-1.756,0.022-2.7,0.034c-0.941-0.05-1.925-0.102-2.951-0.157
	c-2.057-0.101-4.278-0.277-6.664-0.433c-1.191-0.09-2.429-0.147-3.689-0.301c-1.256-0.187-2.548-0.378-3.875-0.575
	c-2.653-0.41-5.458-0.823-8.372-1.346c-2.882-0.695-5.884-1.419-8.991-2.168c-0.776-0.198-1.572-0.361-2.349-0.602
	c-0.774-0.255-1.552-0.514-2.338-0.774c-1.574-0.523-3.172-1.052-4.792-1.59c-3.287-0.977-6.471-2.472-9.792-3.867
	c-1.64-0.738-3.372-1.347-4.974-2.253c-1.629-0.858-3.274-1.725-4.931-2.599c-3.386-1.643-6.537-3.806-9.814-5.866
	c-0.817-0.521-1.636-1.042-2.456-1.566c-0.783-0.577-1.569-1.155-2.356-1.735c-1.564-1.178-3.135-2.361-4.714-3.55l-1.181-0.898
	l-1.125-0.97l-2.254-1.946c-1.499-1.305-3.028-2.593-4.481-3.964c-1.411-1.413-2.825-2.829-4.241-4.246l-2.122-2.129
	c-0.684-0.732-1.336-1.492-1.998-2.243l-3.933-4.539c-1.292-1.526-2.459-3.146-3.691-4.711c-2.516-3.095-4.627-6.454-6.839-9.695
	c-4.234-6.605-8.001-13.347-11.084-20.108c-3.218-6.701-5.689-13.438-7.881-19.839c-2.062-6.451-3.782-12.603-5.009-18.359
	c-0.662-2.863-1.139-5.645-1.642-8.267c-0.392-2.651-0.863-5.136-1.122-7.509c-0.647-4.715-0.914-8.863-1.132-12.26
	c-0.206-3.402-0.193-6.085-0.185-7.908C108.687,243.021,108.762,242.051,108.762,242.051z"/>
</svg>